<?xml version="1.0" standalone="no"?>
<!DOCTYPE svg PUBLIC "-//W3C//DTD SVG 20010904//EN"
 "http://www.w3.org/TR/2001/REC-SVG-20010904/DTD/svg10.dtd">
<svg version="1.0" xmlns="http://www.w3.org/2000/svg"
 width="512.000000pt" height="512.000000pt" viewBox="0 0 512.000000 512.000000"
 preserveAspectRatio="xMidYMid meet">
<metadata>
Created by potrace 1.14, written by Peter Selinger 2001-2017
</metadata>
<g transform="translate(0.000000,512.000000) scale(0.100000,-0.100000)"
fill="#000000" stroke="none">
<path d="M1743 5109 c-42 -12 -98 -68 -111 -111 -6 -18 -41 -208 -78 -423 -37
-214 -69 -391 -70 -393 -1 -2 -204 -39 -451 -83 -572 -100 -582 -103 -682
-152 -204 -99 -341 -320 -341 -549 0 -53 69 -467 239 -1439 132 -750 249
-1405 260 -1456 34 -157 111 -283 225 -370 110 -83 250 -132 376 -133 54 0
2863 490 2926 510 34 12 74 50 96 93 11 22 30 34 79 50 197 67 354 243 403
452 10 39 126 684 258 1435 217 1229 242 1376 242 1475 0 94 -4 122 -27 188
-75 216 -258 379 -477 422 -130 26 -2809 495 -2822 494 -7 0 -28 -5 -45 -10z
m1121 -1519 c500 -88 912 -160 918 -160 24 0 58 -50 58 -87 0 -63 -150 -896
-166 -921 -32 -50 -8 -53 -1003 123 -891 157 -937 166 -958 191 -13 14 -23 38
-23 56 0 29 144 863 156 901 10 30 46 57 79 57 18 0 440 -72 939 -160z m-879
-1727 c2084 -367 2102 -370 2155 -399 75 -41 114 -97 131 -189 26 -141 -84
-285 -229 -302 -33 -3 -142 12 -362 51 -1306 231 -2273 402 -2372 419 -100 17
-118 23 -118 38 0 19 78 476 84 495 5 12 -1 13 711 -113z m543 -993 c407 -71
745 -130 752 -130 7 0 11 -2 9 -5 -11 -11 -2110 -377 -2169 -379 -235 -5 -357
271 -196 442 52 56 96 71 329 114 122 22 276 51 342 63 66 12 137 23 157 24
20 0 370 -57 776 -129z"/>
</g>
</svg>
